<?xml version="1.0" encoding="iso-8859-1"?>
<!-- Uploaded to: SVG Repo, www.svgrepo.com, Generator: SVG Repo Mixer Tools -->
<svg fill="#000000" version="1.1" id="Layer_1" xmlns="http://www.w3.org/2000/svg" xmlns:xlink="http://www.w3.org/1999/xlink" 
	 viewBox="0 0 512 512" xml:space="preserve">
<g>
	<g>
		<path d="M501.954,257.205c-0.974-8.351-4.073-23.863-13.934-39.578c-12.829-20.443-39.603-44.812-94.298-44.812
			c-48.99,0-80.409-22.678-108.13-42.688c-15.254-11.01-29.875-21.562-45.6-26.243c-1.326-16.35-6.466-33.919-20.651-44.336
			c-8.678-6.373-23.887-12.247-47.036-4.031c-23.152,8.214-31.255,22.359-33.977,32.777c-2.99,11.449-0.762,22.829,3.832,33.17
			c-10.435-1.901-19.05-6.506-28.04-11.326c-16.226-8.7-36.422-19.527-64.508-8.38C5.372,119.312,7.391,194.103,8.474,234.284
			c0.08,2.966,0.152,5.663,0.195,8.003C3.059,248.788,0,256.972,0,265.676v30.185c0,19.794,16.104,35.897,35.898,35.897h440.204
			c19.794,0,35.898-16.103,35.898-35.897v-13.68C512,272.462,508.19,263.66,501.954,257.205z M170.635,96.731
			c1.301-4.98,8.6-8.243,12.835-9.746c4.236-1.504,11.958-3.568,16.108-0.523c2.814,2.066,5.635,7.493,6.822,16.917
			c-8.962,2.332-15.253,6.283-20.666,9.709c-2.481,1.57-4.856,3.073-7.53,4.395C171.339,107.734,169.636,100.557,170.635,96.731z
			 M44.093,170.18c3.23-20.826,9.563-34.105,17.834-37.387c13.115-5.203,20.642-1.685,36.413,6.771
			c13.47,7.221,30.232,16.209,53.987,16.209c28.406,0,41.62-8.365,51.268-14.472c6.647-4.207,10.354-6.555,19.444-6.555
			c0.14,0,0.284,0,0.427,0.001c5.088,0.04,10.706,2.056,16.811,5.318l-16.05,19.396l25.726,21.288l18.219-22.017
			c2.326,1.677,4.724,3.396,7.192,5.141l-16.16,19.527l25.726,21.288l18.757-22.667c23.672,13.243,52.885,24.182,90.033,24.182
			c31.057,0,53.036,9.454,65.325,28.1c2.569,3.898,4.473,7.846,5.89,11.534L130.521,233.3
			c-24.221-39.495-64.87-53.316-87.126-58.056C43.608,173.542,43.835,171.849,44.093,170.18z M41.49,209.162
			c12.243,3.194,29.461,9.652,44.202,22.459l-43.93-1.647C41.602,223.811,41.453,216.702,41.49,209.162z M478.609,295.861
			c0,1.382-1.124,2.505-2.507,2.505H35.898c-1.382,0-2.507-1.124-2.507-2.505v-30.185c0-0.88,0.417-1.466,0.766-1.804
			c0.337-0.325,0.906-0.702,1.72-0.702c0.032,0,0.065,0,0.098,0.001l440.22,16.505c1.355,0.05,2.414,1.15,2.414,2.504V295.861z"/>
	</g>
</g>
<g>
	<g>
		<rect x="9.952" y="363.546" width="33.391" height="58.246"/>
	</g>
</g>
<g>
	<g>
		<rect x="103.713" y="363.546" width="33.391" height="58.246"/>
	</g>
</g>
<g>
	<g>
		<rect x="56.832" y="363.546" width="33.391" height="96.968"/>
	</g>
</g>
<g>
	<g>
		<rect x="375.24" y="363.546" width="33.391" height="58.246"/>
	</g>
</g>
<g>
	<g>
		<rect x="469.003" y="363.546" width="33.391" height="58.246"/>
	</g>
</g>
<g>
	<g>
		<rect x="422.122" y="363.546" width="33.391" height="96.968"/>
	</g>
</g>
<g>
	<g>
		<rect x="192.601" y="363.546" width="33.391" height="58.246"/>
	</g>
</g>
<g>
	<g>
		<rect x="286.364" y="363.546" width="33.391" height="58.246"/>
	</g>
</g>
<g>
	<g>
		<rect x="239.482" y="363.546" width="33.391" height="96.968"/>
	</g>
</g>
</svg>